<?xml version="1.0" encoding="utf-8"?>
<!-- Generator: Adobe Illustrator 23.0.4, SVG Export Plug-In . SVG Version: 6.00 Build 0)  -->
<svg version="1.1" id="Layer_1" xmlns="http://www.w3.org/2000/svg" xmlns:xlink="http://www.w3.org/1999/xlink" x="0px" y="0px"
	 viewBox="0 0 188.84 216" style="enable-background:new 0 0 188.84 216;" xml:space="preserve">
<style type="text/css">
	.st0{fill:#FFFFFF;}
</style>
<path class="st0" d="M102.94,59.52h-3.55c-0.15,0-0.44,0.22-0.37,0.37c0.07,0.74,0.22,1.48,0.37,2.22c0,0.07,0.07,0.15,0.15,0.15
	c0.45,0.07,0.52,0.44,0.67,0.74c0,0.07,0.07,0.07,0.15,0.07h5.92c0.15,0,0.37-0.07,0.37-0.22c0.15-0.22,0.15-0.52,0.52-0.59
	c0.15,0,0.3-0.15,0.3-0.3c0.15-0.73,0.29-1.47,0.37-2.2c0.05-0.12,0.03-0.24-0.15-0.24h-3.48c-0.22,0-0.37,0.22-0.37,0.37
	c-0.22,0.82-0.44,0.96-0.59,0.52c-0.15-0.22-0.22-0.44-0.15-0.74C103.08,59.6,103.01,59.52,102.94,59.52z M103.45,61.22
	c0.54-0.12,0.73-0.67,0.83-1.18h2.98c-0.11,0.6-0.19,1.19-0.3,1.79c-0.32,0.13-0.52,0.4-0.67,0.73h-4.99c-0.15,0-0.59,0.07-0.74,0
	c0.07,0-0.07-0.37-0.15-0.44c-0.07-0.15-0.22-0.22-0.37-0.3c-0.07-0.07-0.07,0.15-0.15,0v-0.22c-0.07-0.22-0.15-0.44-0.15-0.67
	l-0.16-0.89h1.12c0.3,0,1.7-0.15,1.93,0c0,0,0,0.74,0.15,0.89C103.01,61.15,103.16,61.3,103.45,61.22z M63.17,21.53
	c0.11,0,0.23,0.01,0.34,0.04c0.1,0.01,0.32,0.03,0.4,0.03h0.67c1.48,0.07,2.96,0.15,4.44,0.22c9.03,0.37,18.14,0.74,27.25,0.81
	c4.59,0.07,9.18,0.07,13.77-0.15c1.7,0,3.33-0.15,5.04-0.3c0.59-0.07,1.33-0.15,1.85-0.22c0.44-0.07,1.04-0.22,1.26-0.3
	c0.45-0.15,1.11-0.22,1.48,0c0.3,0.15,0.45,0.37,0,0.52c-3.26,1.11-6.96,1.04-10.37,1.18c-9.78,0.3-19.62,0-29.47-0.3
	c-5.7-0.22-11.48-0.45-17.18-0.74c-0.3,0-0.89-0.15-0.74-0.52C61.98,21.46,62.95,21.53,63.17,21.53z M82.35,55.08H64.21
	c-0.44,0,0.15-0.3,0.22-0.37c0.37-0.15,0.82-0.3,1.26-0.3h6.67h28.73h18.22c0.37,0-0.15,0.22-0.22,0.3
	c-0.37,0.15-0.89,0.37-1.26,0.37h-6.66H82.35z M76.72,89.37v3.33c0,0.07,0,0.15,0.15,0.15h4.3c0.3,0,0.59-0.45,0.59-0.74V69.15
	v-3.18h0.15c0.07,0,0.44-0.15,0.44-0.3v-0.3c0-0.01-0.02-0.01-0.02-0.01c0.01-0.02,0.03-0.05,0.02-0.06
	c-0.32-0.12-0.62-0.18-0.92-0.22h0.92c0.07,0,0.07,0,0.07-0.08v-0.67c0-0.15-0.15-0.37-0.3-0.37h-4.89c-0.3,0,0,0.44,0.22,0.44h4.55
	c0.05,0.26,0.1,0.22-0.41,0.22h-2.07h-3.11v-0.3c0-0.22-0.44-0.59-0.44-0.3v0.67c0,0.15,0.22,0.37,0.37,0.37h0.1
	c-0.13,0.06-0.25,0.14-0.25,0.22v0.59c0,0.07,0.15,0.07,0.15,0.07h0.66c-0.15,0.16-0.29,0.36-0.29,0.52V89.37z M77.39,91.97
	C77.29,91.97,77.31,91.86,77.39,91.97L77.39,91.97z M81.02,66.41v22.96v2.59H78.2c-0.22,0-0.52-0.07-0.74,0c-0.01,0-0.01,0-0.02,0
	c0-0.09,0.02-0.18,0.02-0.23c0.22-1.63,0-3.41,0-5.11V70.11v-4.15h3.8C81.13,66.12,81.02,66.3,81.02,66.41z M76.85,65.3h2.39
	c1.04,0,1.7,0,2.52,0.3h-2.67h-1.93C76.74,65.59,76.81,65.59,76.85,65.3z M106.64,63.3c-0.96-0.22-2.22-0.07-3.26-0.07
	c-1.11-0.07-2.15-0.07-3.18-0.07c-0.07,0-0.15,0.44-0.15,0.44c0.15,0.44,0.22,0.89,0.37,1.33V65h0.39
	c-0.18,0.13-0.46,0.39-0.46,0.44c0,0.15-0.07,0.82,0,0.89c0.09,0.09,0.27,0.09,0.43,0.07c-0.03,0.07-0.06,0.14-0.06,0.23v20.51v2.89
	c0,0.67,1.11,0.67,1.11,0V69.52v-2.89c0-0.12-0.05-0.22-0.11-0.3h0.63c0.92,0,1.84,0.03,2.76,0.05c-0.01,0.03-0.02,0.06-0.02,0.09
	V86.7v2.89c0,0.67,1.04,0.67,1.04,0V69.37v-2.89c0-0.03-0.01-0.05-0.02-0.07c0,0,0.01,0,0.01,0c0.15,0,0.59-0.45,0.59-0.52
	c0-0.34-0.01-0.67-0.06-0.95l0.06-0.38v-0.59c-0.07,0.37,0,0,0-0.07C106.71,63.67,106.79,63.52,106.64,63.3z M106.12,65.37v0.5
	c-1.06-0.04-2.13-0.05-3.26-0.05h-1.18c-0.07,0-0.67,0.07-0.74,0c-0.03-0.03-0.04-0.2-0.03-0.37h4.4c0.17,0,0.34-0.3,0.48-0.44h0.71
	C106.32,65.11,106.07,65.22,106.12,65.37z M106.61,64.48h-3.97c-0.52,0-1.41,0.22-2,0c-0.3-0.07-0.07,0.07-0.22-0.22
	c-0.09-0.22-0.12-0.44-0.15-0.66c0.99,0.06,1.98,0.07,3.04,0.07c1.04,0,2.29-0.15,3.26,0.07C106.65,63.92,106.64,64.22,106.61,64.48
	z M121.82,30.2v-0.3h-0.89c-0.37,0-0.37-0.59,0-0.59h1.18c0.15,0,0.3,0.15,0.3,0.3v0.59C122.41,30.57,121.82,30.57,121.82,30.2z
	 M56.95,22.49v-1.11c0-0.3,0.74-0.3,0.89-0.3h2.81v-2.37V0.28c0-0.37,1.7-0.37,1.7,0v2.67v18.44c0,0.22-0.67,0.22-0.81,0.22h-2.81
	v0.74c0.59,0.17,1.06,0.46,1.33,1.11c0.15,0.37,0.3,0.82,0.37,1.18c0.37,1.11,0.67,2.15,1.04,3.26c0.03,0.08-0.08,0.14-0.22,0.19
	c0.04,0.03,0.08,0.07,0.12,0.11h6.92h32.95h20.13c0.01-0.01,0.02-0.03,0.02-0.04c-0.27-0.04-0.58-0.12-0.53-0.26
	c0.37-1.18,0.81-2.37,1.18-3.48c0.15-0.44,0.3-0.96,0.52-1.33c0.28-0.47,0.75-0.69,1.26-0.79v-0.69h-3.04c-0.07,0-0.89,0-0.89-0.22
	V17.9V0.57h-6.89H86.57h-19.4c-0.15,0-0.89,0-0.89-0.3c-0.07-0.22,0.74-0.22,0.89-0.22h7.26h29.25h17.11c0.15,0,0.89,0,0.89,0.22
	v5.04v15.77h3.04c0.15,0,0.89,0,0.89,0.3v1.11c0,0.22-0.74,0.22-0.89,0.22c-0.59,0-1.11,2.29-1.26,2.67
	c-0.27,0.73-0.48,1.51-0.73,2.25c0.3,0.04,0.68,0.14,0.58,0.34c-0.37,0.67-0.74,0.74-1.41,0.74c-0.44,0.07-0.89,0-1.26,0h-5.41
	H80.79H65.91h-4.15c-0.3,0-0.59,0.07-0.89,0c-0.81,0-1.04-0.22-1.63-0.74c-0.16-0.12,0.11-0.22,0.38-0.29
	c-0.21-0.74-0.47-1.49-0.67-2.23c-0.15-0.52-0.52-2.59-1.33-2.74C57.47,22.72,56.95,22.72,56.95,22.49z M58.43,62.56
	c0.52,0.89,0.89,1.63,0.89,2.59v3.18v13.92c0,0.52,1.78,1.41,1.78,0.89V68.85c0-1.04,0.07-2.07,0-3.11c0-0.82-0.37-1.55-0.74-2.3
	c-0.68-1.23-1.25-2.45-1.91-3.62c0.56,0.02,1.12,0.06,1.69,0.06c0.38,0,1.12,0.12,1.66,0.06c0.04,0.12,0.14,0.23,0.27,0.23h0.01
	c0.05,0.57,0.26,1.24,0.95,1.11c0.55-0.06,0.77-0.59,0.88-1.11h2.9c-0.11,0.53-0.21,1.05-0.32,1.58c-0.4,0.16-0.62,0.48-0.79,0.94
	c-0.04,0.13-0.05,0.28,0,0.39v0.21h-0.15c-0.22,0-0.37,0.22-0.37,0.44v0.7c-0.13,0.11-0.22,0.27-0.22,0.42v0.09
	c-0.09,0.1-0.15,0.24-0.15,0.35v21.62v3.04c0,0.52,0.67,0.15,0.67-0.22V68.11v-2.67c0.13-0.08,0.22-0.22,0.22-0.37v-0.13
	c0.09-0.08,0.15-0.2,0.15-0.31v-0.59h0.07c0.22,0,0.44-0.3,0.44-0.52v-0.8c0.06-0.16,0.14-0.31,0.3-0.31
	c0.22-0.07,0.45-0.22,0.45-0.37c0.15-0.74,0.3-1.48,0.37-2.22c0.07-0.22,0-0.37-0.22-0.37h-3.48c-0.3,0-0.44,0.22-0.44,0.44
	c-0.44,0.67-0.59,0.59-0.59-0.22c0-0.12-0.07-0.18-0.22-0.2v-2.61h19.03h31.1h6.83c0.04,0.75,0.06,1.48,0.06,2.22h-3.11
	c-0.22,0-0.44,0.37-0.37,0.59c0.07,0.82,0.22,1.7,0.3,2.52c0.07,0.07,0.15,0.15,0.22,0.22c0.37,0.07,0.45,0.3,0.59,0.59v0.74
	c0,0.15,0.07,0.3,0.22,0.3h0.3v0.81c0,0.15,0.07,0.22,0.22,0.22h0.07v22.22v3.26c0,0.45,0.67,0.15,0.67-0.22V67.89v-3.26
	c0-0.15-0.07-0.3-0.22-0.3h-0.07v-0.82c0-0.15-0.07-0.22-0.22-0.22h-0.3v-0.59c0,0,0,0,0,0c0-0.03,0.01-0.05,0-0.08
	c-0.15-0.44-0.3-0.59-0.67-0.89c-0.15-0.15-0.07,0.15-0.15,0c-0.07-0.07,0-0.3-0.07-0.44c-0.05-0.49-0.11-0.99-0.16-1.48h3.05
	c0.16,0,0.31-0.12,0.36-0.26c0.36,0.32,0.96,0.56,1.27,0.56h2.19c-0.29,0.81-0.58,1.63-0.93,2.44c-0.22,0.59-0.59,1.26-0.67,1.93
	v0.67v7.63v12.44v6H105.6c-0.96,0-1.92,0.07-2.89,0.15c-0.52,0-1.11,0.07-1.63,0.07c-0.43-0.04-0.88-0.1-1.33-0.15V76.63
	c0-0.52-0.67-0.15-0.67,0.22v14.39c-0.1,0-0.2-0.02-0.3-0.02c-1.24,0-2.6,0.25-3.85,0.41v-7.81c0-0.22-0.22-0.45-0.44-0.45h-6.37
	c-0.22,0-0.44,0.22-0.44,0.45v7.42c-0.2-0.01-0.4-0.02-0.59-0.02c-1.55-0.07-3.11,0-4.66,0c-0.44,0-0.07,0.45,0.07,0.59
	c0.3,0.3,0.82,0.59,1.26,0.59c2.59,0,5.11,0.07,7.7,0.3c1.26,0.07,2.52,0.37,3.78,0.3c1.27,0,2.58-0.26,3.87-0.43
	c0.06,0.31,0.43,0.2,0.58-0.07c0.02,0,0.05-0.01,0.07-0.01c1.04-0.07,2.07,0.22,3.11,0.15c1.18,0,2.37-0.15,3.63-0.22
	c3.11-0.07,6.22,0,9.33,0h7.85c0.15,0,0.22,0,0.22-0.15V66.78v-1.04c0.07-0.67,0.3-1.18,0.52-1.78c0.52-1.26,0.96-2.59,1.48-3.93
	c0.15-0.52-1.18-1.18-1.63-1.18h-2.55c0.02-0.8,0.03-1.59,0.03-2.37h0.15c0.07,0,0.15,0,0.22-0.07c0.3-0.59,0.59-1.18,0.89-1.7
	c0.24-0.42-0.72-0.93-1.26-1.11v-3.04c0-0.19-0.2-0.41-0.47-0.59h0.39c0.22,0,0.52,0,0.67-0.22c0.3-0.67,0.59-1.26,0.89-1.93
	c0.3-0.59,0.59-1.7,1.41-1.7c0.3,0,0.59,0,0.59-0.37v-1.11c0-0.52-0.89-0.82-1.26-0.82h-2.74c-0.01-4.22-0.21-8.52,0.22-12.74
	c0-0.3-0.89-0.74-0.96-0.44c-0.44,4.3-0.15,8.66-0.15,12.96c0,0.07,0.05,0.15,0.13,0.22h-18.42H67.17h-4.74V32.86
	c0-0.11-0.06-0.22-0.15-0.33v-1.89c0-0.52-1.85-1.41-1.85-0.89v2.22c0,0.11,0.06,0.22,0.15,0.32v11.08c0,0.14,0.11,0.3,0.27,0.44
	h-1.68c-1.33,0-0.15,1.18,0.59,1.18h21.99h34.88h6.73c-0.79,0.16-1.28,0.64-1.7,1.48c-0.33,0.79-0.72,1.52-1.11,2.3h-19.11H70.28
	h-7.18c-1.26,0-0.15,1.18,0.67,1.18h19.62h31.18h5.33v3.7c0,0.35,0.38,0.67,0.79,0.87c-0.02,0.03-0.03,0.06-0.05,0.09
	c-0.07,0.15-0.15,0.37-0.3,0.59c0,0,0,0.01-0.01,0.02c-0.06-0.01-0.17-0.02-0.21-0.02c-0.15,0-0.22,0.07-0.22,0.22v0.67h0h-19.55
	H69.32h-6.94c-0.12-0.25-0.42-0.47-0.74-0.63c-0.12-0.23-0.23-0.47-0.35-0.7h0.93c0.15,0,0.22-0.07,0.22-0.22v-5.33
	c0-0.43-0.81-0.86-1.34-0.99c-0.32-0.71-0.64-1.43-0.95-2.12c-0.15-0.44-0.74-0.74-1.18-0.89c-0.22-0.07-0.74-0.15-0.59,0.3
	c0.44,0.96,0.89,2,1.33,2.96c0.14,0.32,0.51,0.6,0.89,0.78v4.26h-1.04c-0.22,0-0.3,0.15-0.22,0.3c0.3,0.59,0.59,1.18,0.96,1.78
	c0.06,0.12,0.17,0.24,0.3,0.36v1.27v1.18v0.23c-0.65,0.12-1.43-0.01-2.07-0.01c-0.59,0-1.18-0.07-1.78-0.07
	c-0.22,0-0.3,0.15-0.15,0.37C57.17,60.11,57.76,61.37,58.43,62.56z M94.05,91.71c-0.84,0.04-1.68-0.06-2.52-0.12
	c-0.99-0.1-1.97-0.23-2.96-0.3v-7.03h5.48V91.71z M75.46,91.66c0.07,0.07,0.81,0.67,0.44,0.74c-5.03,0.82-10.22,0.67-15.18,0
	c-0.52-0.07-2.07-1.33-1.04-1.18c4.74,0.59,9.78,0.74,14.52,0C74.65,91.14,75.17,91.37,75.46,91.66z M83.76,76.63
	c0.07,4.59,0.22,9.11,0.59,13.7c0.07,0.37-0.67,0.67-0.67,0.22c-0.37-4.59-0.52-9.11-0.67-13.7C83.02,76.48,83.68,76.11,83.76,76.63
	z M65.69,4.79V0.57c0,0.22,1.26,0.37,1.26,0.59v3.63h2.96c0.07,0,1.26,0.52,1.26,0.59v3.63h2.89c0.15,0,1.26,0.52,1.26,0.59v3.63
	h2.96c0.15,0,1.26,0.52,1.26,0.59v3.63h2.89c0.15,0,1.33,0.52,1.33,0.59v3.55h12.29h2.37c0.52,0,0.45,0.07,0.45-0.52v-1.85
	c0-0.44-0.15-1.11,0-1.55c0.15-0.3,0-0.22,0.44-0.22h1.56c0.44,0,2,0.22,2.22-0.15c0.15-0.3,0-1.26,0-1.55V13.9
	c0-0.15-0.07-0.59,0.07-0.67c0.15-0.15,0.89,0,1.11,0h2c0.07,0,0.89,0.08,0.96,0c0.15-0.15,0-0.89,0-1.04v-1.78
	c0-0.22-0.15-1.19,0-1.33c0.15-0.15,0.44-0.07,0.59-0.07h1.93c0.37,0,1.18,0.15,1.48,0c0.3-0.07,0.22,0,0.22-0.37V7.02
	c0-0.52-0.22-2,0.15-2.22c0.37-0.15,1.26,0,1.63,0h1.7c0.22,0,0.59,0.07,0.74-0.07c0.07-0.07,0-0.96,0-1.11V0.57
	c0,0.22,1.26,0.37,1.26,0.59v3.41c0,0.15,0.07,0.74-0.07,0.82c-0.22,0.22-1.26,0-1.55,0h-2c-0.44,0-0.44-0.07-0.59,0.22
	c-0.15,0.44,0,1.26,0,1.7c0,0.59,0.07,1.33,0,1.92c-0.07,0.45,0.15,0.3-0.22,0.37c-0.44,0.15-1.11,0-1.55,0
	c-0.37,0-2.15-0.22-2.37,0.07c-0.15,0.15,0,1.11,0,1.33v1.85c0,0.15,0.07,0.82-0.07,0.96c-0.07,0.07-0.82,0-0.96,0h-2
	c-0.15,0-0.96-0.15-1.11,0c-0.3,0.22-0.07,2.15-0.07,2.59c0,0.37,0.15,1.18,0,1.48c-0.07,0.22-0.15,0.15-0.45,0.15
	c-1.11,0-2.29-0.15-3.41,0c-0.44,0.07-0.22-0.07-0.37,0.3c-0.07,0.45,0,1.04,0,1.48v1.85c0,0.15,0.07,0.52,0,0.59
	c-0.15,0.15-1.26,0-1.48,0h-2.96H83.76c-0.15,0-1.33-0.52-1.33-0.67v-3.55h-2.89c-0.15,0-1.26-0.52-1.26-0.59v-3.63h-2.96
	c-0.07,0-1.26-0.52-1.26-0.59V9.61h-2.89c-0.15,0-1.26-0.52-1.26-0.59V5.39h-2.96C66.8,5.39,65.69,4.94,65.69,4.79z M85.95,74.9
	c1.17-0.46,2.31-0.9,3.44-1.36c-0.21-1.14-0.47-2.27-0.67-3.35c-0.07-0.15,0-0.44,0.15-0.44h4.67c0.37,0,0.67,0.59,0.59,0.89
	c-0.24,1.03-0.48,2.04-0.73,3.03c1.31,0.48,2.66,0.92,3.96,1.36c0.06-0.2,0.11-0.39,0.17-0.61c0.08-0.07,0.15-0.15,0.22-0.15h1.33
	c0.44,0,0.89,1.11,0.44,1.11c-0.44,0-0.89-0.15-1.26,0c-0.01,0-0.01-0.01-0.02-0.01c-0.01,0.04-0.02,0.09-0.06,0.16
	c0,0.15-0.07,0.3-0.15,0.45c-0.07,0.15-0.15,0.22-0.3,0.15c-1.56-0.52-3.19-1.04-4.74-1.63c-0.37-0.07-0.59-0.52-0.52-0.89
	c0.22-0.88,0.44-1.81,0.66-2.74h-3.6c0.25,1.11,0.46,2.21,0.72,3.26c0,0.15,0,0.37-0.15,0.37c-1.41,0.59-2.81,1.11-4.22,1.63
	c-0.37,0.15-0.67-0.45-0.67-0.74h-1.78c-0.37,0-0.82-1.11-0.37-1.11h2.37C85.7,74.26,85.89,74.61,85.95,74.9z M83.39,59.3h-3.55
	v0.22c-0.07,1.11-1.11,1.18-1.18,0c0,0,0-0.22-0.07-0.22h-3.55c-0.07,0,0,0.89,0,0.96c0,0.01,0,0.02,0.01,0.03
	c0,0.01,0,0.03-0.01,0.04h0.01c0.14,0.72,0.28,1.43,0.36,2.15c0,0,0,0.07,0.07,0.07c0.25,0.04,0.4,0.16,0.52,0.32v0.79
	c0,0.37,0.44,0.22,0.44-0.07v-0.22h5.55v0.3c0,0.37,0.44,0.22,0.44-0.07v-0.71c0.12-0.16,0.29-0.28,0.59-0.33v-0.07
	c0.14-0.72,0.28-1.43,0.36-2.15h0.01c0.03,0,0.05-0.17,0.05-0.38c0.02-0.15,0.02-0.31,0.02-0.44c-0.01,0-0.02-0.02-0.03-0.04
	C83.42,59.37,83.41,59.3,83.39,59.3z M83.09,60.93c-0.07,0.3-0.07,0.44-0.22,0.59c-0.07,0.07-0.3,0.15-0.45,0.3
	c-0.07,0.07-0.07,0.22-0.15,0.37c-0.22,0.22-0.67,0.07-1.04,0.07h-2h-2.07c-0.37,0-0.74,0.15-0.96-0.07
	c-0.22-0.22-0.3-0.44-0.52-0.67c-0.15,0.07-0.22,0.07-0.22,0v-0.15c-0.07-0.07-0.07-0.22-0.07-0.37l-0.12-0.67h3.28
	c0.07,0.5,0.21,1.18,0.7,1.18c0.48,0,0.62-0.69,0.65-1.18h3.29C83.15,60.53,83.12,60.73,83.09,60.93z M51.32,107.81
	c0.59,0.74,1.33,1.78,2.37,1.85c0.22,0,0.59-0.89,0.67-1.04c0-0.15,0.52-1.18,0.44-1.18c-0.96-0.07-1.78-1.18-2.3-1.85
	c-0.55-0.71-1.02-1.45-1.45-2.2c10.53-0.48,21.06-0.78,31.67-1.2c3.63-0.15,7.33-0.37,10.96-0.52c2.81-0.07,5.63,0,8.44-0.22
	c2.67-0.15,5.26-0.74,7.85-1.33c1.41-0.37,2.89-0.67,4.37-0.89c1.48-0.22,2.96-0.67,4.52-0.96c1.41-0.3,2.67-0.3,4.07-0.3
	c0.44,0,0.52-0.07,0.89,0.22c0.22,0.22,0.52,0.45,0.74,0.67c0.59,0.52,1.18,0.96,1.78,1.48c0.07,0.07,0.37-0.52,0.37-0.52
	c0.67-1.04,1.41-0.96,2.22-0.22c0.03,0.03,0.2-0.21,0.41-0.54c2.15,0.27,4.34,0.48,6.48,0.69c0.37,0.08,1.18-1.85,1.18-2.15
	c0-0.02-0.01-0.04-0.01-0.06l0.01-0.01c0,0-0.01,0-0.01,0c-0.02-0.31-0.16-0.47-0.36-0.74c-0.15-0.44-0.22-0.89-0.22-1.33
	c-0.07-0.74,0.07-1.55,0.22-2.3c0.07-0.96,0.22-1.85,0.3-2.74c0.05-0.37,0.07-0.74,0.11-1.09c0.28,0.21,0.57,0.43,0.78,0.64
	c0.35,0.25,0.73,0.57,1.03,0.91c-0.14,0.33-0.22,0.61-0.15,0.72c0.52,0.67,0.59,1.85,0.67,2.74c0.07,0.59,0.15,1.18,0.3,1.78
	c0,0.3,0,0.74,0.15,1.04c0,0,0-0.07,0.07-0.07c1.26-0.82,2.59-1.7,3.92-2.59c0.37-0.22,0.67-0.96,0.82-1.33
	c0.07-0.15,0.37-0.89,0.22-0.82c-0.67,0.37-1.33,0.82-2,1.26c-0.3,0.22-0.67,0.44-1.04,0.74c-0.07,0-0.82,0.59-0.89,0.52
	c-0.07,0-0.07-0.52-0.07-0.59c-0.07-0.44-0.15-0.81-0.22-1.26c-0.07-0.59-0.15-1.18-0.22-1.78c-0.1-0.39-0.14-0.83-0.28-1.24
	c0.15-0.28,0.32-0.64,0.28-0.83c-0.45-0.74-1.41-1.41-2.07-1.93c-0.22-0.15-0.52-0.44-0.74-0.3c-0.22,0.07-0.45,0.52-0.59,0.67
	c-0.3,0.52-0.52,0.96-0.74,1.48c-0.3,0.81-0.3,1.7-0.37,2.52c-0.15,1.04-0.22,2.07-0.37,3.04c-0.07,0.89-0.3,1.78-0.3,2.67
	c0,0.02,0,0.03,0,0.05c-1.75-0.17-3.49-0.35-5.26-0.57c-0.07,0-0.17,0.11-0.28,0.27c-0.43-0.26-0.91-0.38-1.34-0.05
	c-0.41,0.25-0.7,0.65-0.95,1.06c-0.43-0.42-0.92-0.78-1.35-1.21c-0.37-0.3-1.04-1.04-1.48-1.18c-0.44-0.07-1.11,0.08-1.55,0
	c-0.67,0-1.33,0-1.93,0.15c-1.33,0.22-2.67,0.59-4,0.89c-1.33,0.3-2.67,0.45-4,0.67c-2.59,0.59-5.11,1.26-7.77,1.63
	c-2.74,0.37-5.48,0.3-8.3,0.37c-4.07,0.15-8.22,0.37-12.29,0.59c-5.11,0.22-10.29,0.3-15.4,0.52c-6.11,0.22-12.22,0.44-18.33,0.74
	c0.43-1.01,0.87-2.05,1.3-3.11c0.3-0.59,0.67-1.26,0.82-1.92c0.15-0.59,0.07-1.33,0.15-2v-0.07c-1.11-0.44-2.07-1.11-3.04-1.7
	c-0.96-0.67-1.93-1.63-3.19-1.11c-0.22,0.15-0.44,0.67-0.59,0.89c-0.15,0.37-0.52,0.89-0.52,1.33c0,3.41,1.41,6.89,2.89,9.92
	C49.47,104.92,50.28,106.47,51.32,107.81z M48.95,94.55c0.52,0.3,1.04,0.67,1.55,1.04c0.22,0.15,0.44,0.3,0.67,0.37
	c0.3,0.15,0.59,0.22,0.82,0.44c0.15,0.3,0,0.67,0,0.96v0.52c-0.07,0.59-0.52,1.26-0.74,1.78c-0.32,0.75-0.64,1.52-0.96,2.29
	c-0.1-0.2-0.2-0.39-0.3-0.59c-1.17-2.4-2.28-5.12-2.7-7.84C47.86,93.74,48.39,94.17,48.95,94.55z M80.79,96.47
	c-0.37,0-0.67-0.07-1.04-0.22c2.81-0.07,5.55-0.15,8.29-0.22c0.15-0.07,0.3-0.07,0.45-0.15c2.07,0,4.22-0.15,6.29-0.07
	c1.78,0,3.48-0.3,5.26-0.22c1.78,0.07,3.55-0.07,5.33-0.15c-0.15,0.15-0.37,0.22-0.59,0.37c-0.37,0-0.67,0.07-1.04,0.15h-0.07h-0.07
	c-0.89,0.07-1.85,0.15-2.74,0.22c-2.15,0.15-4.29,0.45-6.44,0.59c-1.33,0.15-2.59,0.22-3.85,0.22c-1.7,0-3.41-0.07-5.11-0.22
	C83.9,96.7,82.35,96.62,80.79,96.47z M1.93,160.16c-1.18-1.26-1.85-2.89-1.85-4.96c0-1.33,0.3-2.59,0.89-3.78
	c0.59-1.26,1.41-2.07,2.37-2.67c1.04-0.59,2.22-0.89,3.48-0.89c0.96,0,1.92,0.22,2.74,0.59c0.81,0.44,1.48,0.89,1.85,1.41
	c0.3-0.52,0.44-1.11,0.52-1.78h0.45l0.15,5.18h-0.44c-0.3-1.78-0.89-3.11-1.85-3.78c-0.96-0.74-2-1.11-3.11-1.11
	c-1.48,0-2.59,0.59-3.48,1.78c-0.81,1.11-1.26,2.81-1.26,4.96c0,2.07,0.52,3.63,1.41,4.74c0.89,1.04,2.07,1.63,3.41,1.63
	c0.74,0,1.48-0.22,2.3-0.52c0.74-0.37,1.33-0.96,1.78-1.85c0.44-0.81,0.74-1.7,0.82-2.44h0.44v4.74h-0.44
	c-0.15-0.52-0.37-0.96-0.67-1.41c-1.18,1.33-2.74,2.07-4.59,2.07C4.81,162.09,3.18,161.42,1.93,160.16z M28.66,149.79
	c-1.41-1.26-3.18-1.93-5.33-1.93c-2.07,0-3.85,0.67-5.26,1.93c-1.41,1.26-2.15,2.96-2.15,5.11c0,2.15,0.74,3.85,2.15,5.18
	c1.33,1.33,3.11,2,5.33,2s4-0.67,5.41-2c1.33-1.33,2-3.04,2-5.18C30.81,152.76,30.14,151.05,28.66,149.79z M27.18,159.87
	c-0.89,1.11-2.15,1.7-3.63,1.7c-1.78,0-3.11-0.59-4-1.7c-0.89-1.11-1.26-2.74-1.26-4.96c0-2.15,0.37-3.78,1.26-4.89
	c0.89-1.11,2.15-1.63,3.78-1.63c1.7,0,2.96,0.52,3.85,1.7c0.89,1.11,1.33,2.74,1.33,4.89C28.51,157.13,28.07,158.75,27.18,159.87z
	 M38.36,161.79h-5.11v-0.45c0.67-0.07,1.18-0.15,1.48-0.37c0.37-0.22,0.59-0.37,0.59-0.59c0.07-0.22,0.15-0.74,0.15-1.63v-7.26
	c0-1.04-0.07-1.7-0.15-2.07c-0.15-0.37-0.3-0.59-0.44-0.67c-0.22-0.15-0.74-0.15-1.48-0.15v-0.52h4.07l8.07,10.74v-8.22
	c0-0.59-0.07-0.96-0.15-1.26c-0.15-0.22-0.37-0.44-0.82-0.52c-0.37-0.15-0.82-0.22-1.33-0.22v-0.52h4.96v0.52
	c-0.59,0-1.04,0.15-1.41,0.3c-0.3,0.22-0.52,0.37-0.59,0.67c-0.07,0.22-0.15,0.67-0.15,1.18v11.33h-0.44l-9.7-12.81v9.48
	c0,0.82,0.07,1.33,0.15,1.56c0.07,0.3,0.3,0.52,0.67,0.74c0.37,0.15,0.89,0.3,1.63,0.3V161.79z M57.99,157.13h-0.52
	c0-0.59-0.07-1.04-0.15-1.41c-0.15-0.37-0.3-0.59-0.59-0.67c-0.22-0.15-0.67-0.22-1.33-0.22h-1.26v3.41c0,1.11,0,1.78,0.07,2.15
	c0.07,0.3,0.15,0.52,0.37,0.74c0.22,0.15,0.67,0.22,1.33,0.22h0.45v0.44h-6.37v-0.44h0.44c0.59,0,0.96-0.07,1.18-0.22
	c0.22-0.15,0.37-0.37,0.44-0.67c0.08-0.37,0.08-1.11,0.08-2.22v-6.74c0-1.04,0-1.78-0.08-2.07c-0.07-0.3-0.22-0.52-0.37-0.67
	c-0.22-0.15-0.67-0.15-1.41-0.15h-0.22v-0.52h10.59l0.07,3.41h-0.44c-0.15-0.74-0.3-1.33-0.67-1.85c-0.3-0.44-0.67-0.74-1.04-0.89
	c-0.3-0.15-0.96-0.15-1.78-0.15h-2.67v5.78h1.26c0.82,0,1.41-0.15,1.63-0.45c0.3-0.22,0.44-0.81,0.44-1.63h0.52V157.13z
	 M73.83,161.79H62.5v-0.44h0.3c0.67,0,1.11-0.07,1.26-0.3c0.22-0.15,0.37-0.37,0.37-0.67c0.07-0.3,0.15-1.04,0.15-2.15v-6.74
	c0-1.04-0.07-1.7-0.15-2c0-0.37-0.15-0.59-0.37-0.74c-0.22-0.07-0.59-0.15-1.26-0.15v-0.52h9.78l0.3,3.41h-0.44
	c-0.22-0.89-0.52-1.63-0.82-2c-0.3-0.37-0.67-0.67-1.11-0.74c-0.44-0.15-1.11-0.15-2.07-0.15H66.5v5.7h1.48
	c0.67,0,1.11-0.07,1.41-0.15c0.22-0.15,0.44-0.3,0.52-0.52c0.07-0.22,0.07-0.67,0.07-1.33h0.52v4.67h-0.52c0-0.82,0-1.26-0.15-1.55
	c-0.15-0.22-0.3-0.45-0.59-0.52c-0.22-0.07-0.67-0.07-1.26-0.07H66.5v3.18c0,1.63,0.15,2.59,0.3,2.89c0.22,0.3,0.81,0.44,1.7,0.44
	h1.04c0.74,0,1.33-0.07,1.78-0.3c0.44-0.15,0.89-0.59,1.33-1.11c0.37-0.59,0.74-1.41,0.96-2.37h0.52L73.83,161.79z M81.02,155.2
	c0.37,0,0.59,0.07,0.82,0.22c0.15,0.07,0.44,0.44,0.96,1.04c0.44,0.52,0.89,1.11,1.33,1.78c1.33,1.93,2.29,3.11,2.96,3.55h3.7v-0.44
	c-0.82-0.08-1.48-0.3-2.07-0.67c-0.59-0.44-1.41-1.41-2.44-2.74c-1.33-1.7-2.22-2.74-2.81-3.04c1.26-0.15,2.3-0.52,2.89-1.18
	c0.67-0.59,1.04-1.33,1.04-2.3c0-0.74-0.3-1.41-0.74-1.92c-0.52-0.59-1.18-0.96-2-1.18c-0.81-0.3-1.92-0.37-3.18-0.37
	c-0.82,0-1.78,0-3.11,0.07l-2,0.07v0.52h0.3c0.67,0,1.11,0,1.33,0.15s0.3,0.37,0.37,0.67c0.08,0.3,0.15,1.04,0.15,2.07v6.74
	c0,1.11-0.07,1.85-0.15,2.22c-0.07,0.3-0.15,0.52-0.37,0.67c-0.3,0.15-0.67,0.22-1.26,0.22h-0.44v0.44h6.59v-0.44H82.2
	c-0.67,0-1.04-0.08-1.26-0.22c-0.22-0.22-0.37-0.44-0.44-0.74c0-0.37-0.07-1.04-0.07-2.15v-3.04H81.02z M80.42,148.46h0.89
	c1.63,0,2.67,0.3,3.11,0.82c0.52,0.59,0.74,1.41,0.74,2.37c0,0.52-0.07,0.96-0.22,1.33c-0.15,0.45-0.3,0.74-0.59,0.96
	c-0.22,0.22-0.52,0.37-0.96,0.52c-0.37,0.15-0.81,0.22-1.41,0.22c-0.52,0-1.04,0.07-1.55,0.07V148.46z M103.83,161.79H92.49v-0.44
	h0.3c0.67,0,1.11-0.07,1.33-0.3c0.15-0.15,0.3-0.37,0.37-0.67c0-0.3,0.07-1.04,0.07-2.15v-6.74c0-1.04-0.07-1.7-0.07-2
	c-0.07-0.37-0.22-0.59-0.44-0.74c-0.22-0.07-0.59-0.15-1.26-0.15v-0.52h9.78l0.3,3.41h-0.44c-0.22-0.89-0.52-1.63-0.82-2
	c-0.3-0.37-0.67-0.67-1.11-0.74c-0.44-0.15-1.11-0.15-2.07-0.15h-1.93v5.7h1.48c0.67,0,1.11-0.07,1.41-0.15
	c0.22-0.15,0.44-0.3,0.52-0.52c0.07-0.22,0.15-0.67,0.15-1.33h0.44v4.67h-0.44c0-0.82-0.07-1.26-0.22-1.55
	c-0.15-0.22-0.3-0.45-0.59-0.52c-0.22-0.07-0.67-0.07-1.18-0.07h-1.56v3.18c0,1.63,0.15,2.59,0.37,2.89
	c0.15,0.3,0.74,0.44,1.63,0.44h1.04c0.74,0,1.33-0.07,1.78-0.3c0.44-0.15,0.89-0.59,1.33-1.11c0.44-0.59,0.74-1.41,0.96-2.37h0.52
	L103.83,161.79z M108.79,149.28v9.48c0,0.82,0.07,1.33,0.15,1.56c0.07,0.3,0.3,0.52,0.67,0.74c0.37,0.15,0.89,0.3,1.63,0.3v0.45
	h-5.11v-0.45c0.67-0.07,1.11-0.15,1.48-0.37c0.37-0.22,0.52-0.37,0.59-0.59c0.07-0.22,0.15-0.74,0.15-1.63v-7.26
	c0-1.04-0.07-1.7-0.15-2.07c-0.15-0.37-0.3-0.59-0.52-0.67c-0.15-0.15-0.67-0.15-1.41-0.15v-0.52h4.07l8.07,10.74v-8.22
	c0-0.59-0.07-0.96-0.15-1.26c-0.15-0.22-0.44-0.44-0.81-0.52c-0.37-0.15-0.82-0.22-1.33-0.22v-0.52h4.96v0.52
	c-0.59,0-1.04,0.15-1.41,0.3c-0.3,0.22-0.52,0.37-0.59,0.67c-0.15,0.22-0.15,0.67-0.15,1.18v11.33h-0.44L108.79,149.28z
	 M126.93,150.16c-0.89,1.11-1.26,2.81-1.26,4.96c0,2.07,0.45,3.63,1.33,4.74c0.96,1.04,2.07,1.63,3.48,1.63
	c0.74,0,1.48-0.22,2.22-0.52c0.74-0.37,1.41-0.96,1.85-1.85c0.44-0.81,0.67-1.7,0.74-2.44h0.44v4.74h-0.44
	c-0.07-0.52-0.3-0.96-0.67-1.41c-1.18,1.33-2.74,2.07-4.59,2.07c-1.93,0-3.55-0.67-4.81-1.92c-1.26-1.26-1.92-2.89-1.92-4.96
	c0-1.33,0.3-2.59,0.89-3.78c0.59-1.26,1.41-2.07,2.44-2.67c1.04-0.59,2.15-0.89,3.41-0.89c1.04,0,1.93,0.22,2.74,0.59
	c0.89,0.44,1.48,0.89,1.85,1.41c0.3-0.52,0.52-1.11,0.59-1.78h0.44l0.07,5.18h-0.44c-0.3-1.78-0.89-3.11-1.85-3.78
	c-0.89-0.74-1.92-1.11-3.11-1.11C128.86,148.39,127.74,148.98,126.93,150.16z M139.08,148.09h9.78l0.3,3.41h-0.44
	c-0.22-0.89-0.52-1.63-0.82-2c-0.3-0.37-0.67-0.67-1.11-0.74c-0.44-0.15-1.11-0.15-2.07-0.15h-1.85v5.7h1.41
	c0.67,0,1.11-0.07,1.41-0.15c0.3-0.15,0.44-0.3,0.52-0.52c0.07-0.22,0.15-0.67,0.15-1.33h0.44v4.67h-0.44
	c0-0.82-0.07-1.26-0.22-1.55c-0.15-0.22-0.3-0.45-0.52-0.52c-0.3-0.07-0.67-0.07-1.26-0.07h-1.48v3.18c0,1.63,0.08,2.59,0.3,2.89
	c0.22,0.3,0.74,0.44,1.63,0.44h1.04c0.74,0,1.33-0.07,1.78-0.3c0.44-0.15,0.89-0.59,1.33-1.11c0.44-0.59,0.74-1.41,1.04-2.37h0.44
	l-0.3,4.22h-11.33v-0.44h0.3c0.67,0,1.11-0.07,1.33-0.3c0.15-0.15,0.3-0.37,0.37-0.67c0.07-0.3,0.07-1.04,0.07-2.15v-6.74
	c0-1.04,0-1.7-0.07-2c-0.07-0.37-0.22-0.59-0.44-0.74c-0.15-0.07-0.59-0.15-1.26-0.15V148.09z M166.77,162.09c2.22,0,4-0.67,5.41-2
	c1.33-1.33,2-3.04,2-5.18c0-2.15-0.67-3.85-2.15-5.11c-1.41-1.26-3.18-1.93-5.33-1.93c-2.07,0-3.85,0.67-5.26,1.93
	c-1.41,1.26-2.15,2.96-2.15,5.11c0,2.15,0.74,3.85,2.07,5.18C162.77,161.42,164.55,162.09,166.77,162.09z M162.92,150.02
	c0.89-1.11,2.15-1.63,3.78-1.63c1.7,0,2.96,0.52,3.85,1.7c0.89,1.11,1.33,2.74,1.33,4.89c0,2.15-0.45,3.78-1.33,4.89
	c-0.89,1.11-2.15,1.7-3.63,1.7c-1.78,0-3.11-0.59-4-1.7c-0.89-1.11-1.33-2.74-1.33-4.96C161.59,152.76,162.03,151.13,162.92,150.02z
	 M183.21,161.79h-6.37v-0.44h0.44c0.59,0,0.96-0.07,1.18-0.22c0.22-0.15,0.37-0.37,0.44-0.67c0.07-0.37,0.07-1.11,0.07-2.22v-6.74
	c0-1.04,0-1.78-0.07-2.07c-0.07-0.3-0.22-0.52-0.37-0.67c-0.22-0.15-0.67-0.15-1.41-0.15h-0.22v-0.52h10.59l0.07,3.41h-0.44
	c-0.15-0.74-0.3-1.33-0.67-1.85c-0.3-0.44-0.67-0.74-1.04-0.89c-0.3-0.15-0.96-0.15-1.78-0.15h-2.67v5.78h1.26
	c0.82,0,1.41-0.15,1.63-0.45c0.3-0.22,0.44-0.81,0.44-1.63h0.52v4.81h-0.52c0-0.59-0.07-1.04-0.15-1.41
	c-0.15-0.37-0.3-0.59-0.59-0.67c-0.22-0.15-0.67-0.22-1.33-0.22h-1.26v3.41c0,1.11,0,1.78,0.07,2.15c0.07,0.3,0.15,0.52,0.37,0.74
	c0.22,0.15,0.67,0.22,1.33,0.22h0.45V161.79z M73.69,213.78h6.37L79.54,216h-0.52c0-0.07,0-0.22,0.07-0.37v-0.22
	c0-0.22,0-0.37-0.07-0.37c-0.15-0.07-0.37-0.07-0.74-0.07h-5.92v-0.59c0.74-0.59,1.7-1.56,2.89-2.89c1.18-1.26,2-2.37,2.52-3.33
	c0.52-0.96,0.81-1.93,0.81-2.89c0-1.11-0.3-1.93-0.81-2.52c-0.52-0.52-1.18-0.82-1.93-0.82c-0.81,0-1.41,0.3-1.78,0.74
	c-0.44,0.52-0.67,1.04-0.67,1.63c0,0.67,0.3,1.11,0.82,1.55c0.22,0.07,0.3,0.22,0.3,0.3c0,0.15-0.07,0.3-0.3,0.52
	c-0.22,0.15-0.44,0.3-0.59,0.3c-0.22,0-0.45-0.22-0.74-0.59c-0.3-0.45-0.44-0.96-0.44-1.63c0-0.96,0.44-1.85,1.26-2.44
	c0.74-0.59,1.63-0.89,2.59-0.89c1.04,0,1.93,0.3,2.74,0.96c0.81,0.59,1.18,1.55,1.18,2.74c0,0.81-0.15,1.56-0.52,2.22
	c-0.37,0.74-1.26,1.78-2.67,3.18C75.61,212,74.5,213.04,73.69,213.78z M87.68,201.41c-1.26,0-2.29,0.67-3.11,1.92
	c-0.82,1.26-1.18,2.89-1.18,5.04c0,2.07,0.37,3.78,1.18,5.04c0.82,1.26,1.85,1.92,3.11,1.92c1.33,0,2.37-0.67,3.18-1.92
	c0.74-1.26,1.18-2.96,1.18-5.04s-0.45-3.78-1.18-5.04C90.05,202.08,89.01,201.41,87.68,201.41z M89.75,213.48
	c-0.37,0.89-1.04,1.33-2.07,1.33c-0.81,0-1.48-0.37-1.92-1.11c-0.44-0.74-0.74-2.52-0.74-5.33s0.3-4.59,0.74-5.33
	c0.44-0.74,1.11-1.11,1.92-1.11c0.82,0,1.48,0.37,2,1.11c0.44,0.74,0.67,2.52,0.67,5.33C90.35,210.89,90.12,212.59,89.75,213.48z
	 M96.35,213.78h6.44L102.2,216h-0.44v-0.37c0.07-0.08,0.07-0.15,0.07-0.22c0-0.22-0.07-0.37-0.15-0.37
	c-0.07-0.07-0.3-0.07-0.67-0.07h-6v-0.59c0.81-0.59,1.78-1.56,2.96-2.89c1.11-1.26,2-2.37,2.52-3.33c0.52-0.96,0.74-1.93,0.74-2.89
	c0-1.11-0.22-1.93-0.74-2.52c-0.52-0.52-1.18-0.82-2-0.82c-0.74,0-1.33,0.3-1.78,0.74c-0.37,0.52-0.59,1.04-0.59,1.63
	c0,0.67,0.22,1.11,0.82,1.55c0.22,0.07,0.3,0.22,0.3,0.3c0,0.15-0.15,0.3-0.37,0.52c-0.22,0.15-0.37,0.3-0.52,0.3
	c-0.22,0-0.44-0.22-0.74-0.59c-0.3-0.45-0.44-0.96-0.44-1.63c0-0.96,0.37-1.85,1.18-2.44c0.81-0.59,1.7-0.89,2.67-0.89
	c0.96,0,1.92,0.3,2.74,0.96c0.81,0.59,1.18,1.55,1.18,2.74c0,0.81-0.15,1.56-0.52,2.22c-0.37,0.74-1.26,1.78-2.67,3.18
	C98.34,212,97.23,213.04,96.35,213.78z M110.42,201.41c-1.33,0-2.37,0.67-3.18,1.92c-0.74,1.26-1.18,2.89-1.18,5.04
	c0,2.07,0.45,3.78,1.18,5.04c0.82,1.26,1.85,1.92,3.18,1.92c1.26,0,2.3-0.67,3.11-1.92c0.81-1.26,1.19-2.96,1.19-5.04
	s-0.37-3.78-1.19-5.04C112.71,202.08,111.67,201.41,110.42,201.41z M112.49,213.48c-0.44,0.89-1.11,1.33-2.07,1.33
	c-0.81,0-1.48-0.37-2-1.11c-0.44-0.74-0.67-2.52-0.67-5.33s0.22-4.59,0.67-5.33c0.52-0.74,1.18-1.11,2-1.11
	c0.82,0,1.48,0.37,1.93,1.11c0.44,0.74,0.67,2.52,0.67,5.33C113.01,210.89,112.86,212.59,112.49,213.48z M59.98,118.69v5.85h4.29
	v-5.85h5.04v16h-5.04v-6.89h-4.29v6.89h-5.11v-16H59.98z M83.61,134.69H72.06v-16h11.55v3.41h-6.52v2.89h5.48v3.04h-5.48v3.18h6.52
	V134.69z M92.64,134.98c-2.52,0-4.52-0.67-6-2c-1.41-1.33-2.15-3.33-2.15-6.07c0-2.81,0.82-4.89,2.3-6.29
	c1.48-1.41,3.63-2.07,6.37-2.07c1.41,0,3.18,0.22,5.18,0.59c0,0.37-0.08,0.96-0.15,1.7c-0.07,0.74-0.15,1.26-0.22,1.56l-0.96-0.08
	h-2.89c-2.07,0-3.18,0.08-3.41,0.37c-0.3,0.3-0.52,0.89-0.59,1.63c-0.15,0.74-0.22,1.48-0.22,2.15c0,1.26,0.15,2.22,0.45,2.89
	c0.3,0.74,0.74,1.18,1.26,1.48c0.59,0.3,1.41,0.37,2.37,0.37h0.15v-5.41h4.89v8c-1.26,0.37-2.44,0.67-3.55,0.89
	C94.35,134.84,93.38,134.98,92.64,134.98z M106.42,128.76c1.04,0,1.78-0.07,2.3-0.07c0.22,0.07,0.37,0.15,0.44,0.37
	c0.15,0.15,0.22,0.44,0.3,0.81c0.07,0.37,0.15,0.59,0.22,0.74l0.96,4.07h5.26l-1.41-5.26c-0.15-0.59-0.37-1.04-0.81-1.41
	c-0.45-0.37-1.04-0.59-1.63-0.67v-0.15c1.11-0.15,1.93-0.52,2.44-1.18c0.59-0.59,0.82-1.48,0.82-2.67c0-1.18-0.3-2.15-0.82-2.81
	c-0.52-0.74-1.41-1.18-2.44-1.48c-1.11-0.3-2.59-0.44-4.37-0.44c-1.93,0-4,0.07-6.29,0.22v15.85h5.03V128.76z M106.42,121.73
	c0.67,0,1.04-0.07,1.26-0.07c0.89,0,1.55,0.15,2,0.44c0.37,0.3,0.59,0.82,0.59,1.56c0,0.81-0.15,1.33-0.37,1.55
	c-0.22,0.3-1.04,0.37-2.52,0.37h-0.96V121.73z M122.19,131.13h4.67l0.81,3.55h5.18l-4.96-16h-6.52l-5.18,16h5.18L122.19,131.13z
	 M124.49,122.17h0.07l1.63,5.85h-3.33L124.49,122.17z M9.26,174.6h4.07v14H9.11l-3.78-5.92l-1.11-1.63H4.15l-0.07,1.92v5.63H0v-14
	h4.15l3.7,5.63c0.59,0.82,1.04,1.55,1.33,2.15h0.07v-2.37V174.6z M22.66,174.38c-2.22,0-4,0.59-5.33,1.7
	c-1.33,1.18-2.07,3.04-2.07,5.55s0.67,4.44,1.85,5.55c1.26,1.18,3.11,1.78,5.55,1.78c2.37,0,4.15-0.67,5.33-2.07
	c1.11-1.33,1.7-3.18,1.7-5.55C29.7,176.75,27.33,174.38,22.66,174.38z M24.44,184.97c-0.15,0.37-0.45,0.67-0.74,0.81
	c-0.3,0.15-0.67,0.22-1.18,0.22c-0.44,0-0.89-0.07-1.18-0.3c-0.37-0.15-0.59-0.52-0.81-1.04c-0.22-0.59-0.37-1.63-0.37-3.04
	c0-0.89,0.07-1.7,0.15-2.44c0.15-0.74,0.3-1.18,0.45-1.48c0.15-0.07,0.37-0.22,0.74-0.3c0.37-0.07,0.74-0.07,1.04-0.07
	c0.96,0,1.55,0.37,1.93,1.04c0.37,0.74,0.52,1.78,0.52,3.26C24.96,183.19,24.81,184.3,24.44,184.97z M40.8,181.19v-0.15
	c0.89-0.15,1.55-0.52,1.92-1.04c0.45-0.52,0.67-1.26,0.67-2.07c0-1.04-0.22-1.7-0.74-2.22c-0.52-0.52-1.18-0.82-2-0.96
	c-0.82-0.15-1.93-0.15-3.18-0.15h-5.85v14h4.81c3.33,0,5.33-0.15,6-0.59c0.22-0.15,0.37-0.3,0.59-0.67
	c0.22-0.37,0.44-0.74,0.59-1.26c0.22-0.44,0.3-0.96,0.3-1.56c0-0.81-0.3-1.55-0.74-2.22C42.73,181.71,41.92,181.34,40.8,181.19z
	 M36.06,177.2h1.11c0.45,0,0.82,0,1.04,0.07c0.22,0,0.44,0.15,0.59,0.3c0.22,0.22,0.37,0.59,0.37,1.11c0,0.3-0.07,0.59-0.22,0.89
	c-0.07,0.3-0.22,0.44-0.37,0.52c-0.22,0.07-0.59,0.15-1.18,0.15h-1.04h-0.3V177.2z M39.47,185.27c-0.07,0.22-0.15,0.44-0.22,0.52
	c-0.15,0.07-0.45,0.15-1.11,0.22h-2.07v-3.55c0.3,0,0.67-0.07,1.04-0.07c0.67,0,1.11,0.07,1.41,0.07c0.22,0.07,0.44,0.15,0.59,0.3
	c0.15,0.15,0.3,0.37,0.37,0.67c0.07,0.3,0.15,0.67,0.15,0.96C39.62,184.68,39.55,184.97,39.47,185.27z M45.62,174.6h10.22v2.89
	h-5.78v2.59h4.89v2.67h-4.89v2.89h5.78v2.96H45.62V174.6z M62.13,185.34h5.78v3.26H57.69v-14h4.44V185.34z M77.54,185.34h5.78v3.26
	H73.09v-14h4.44V185.34z M94.05,174.6H88.2l-4.52,14h4.52l0.74-3.04h4.15l0.74,3.04h4.52L94.05,174.6z M89.53,182.82l1.48-5.26h0.07
	l1.41,5.26H89.53z M109.75,188.23c-0.96,0.44-2.37,0.67-4.22,0.67c-1.41,0-2.52-0.15-3.48-0.45c-0.96-0.3-1.7-0.81-2.22-1.63
	c-0.59-0.82-0.82-1.93-0.82-3.41v-8.81h4.44v7.85c0,0.89,0,1.55,0.15,2c0.07,0.44,0.3,0.81,0.59,1.04c0.3,0.3,0.82,0.37,1.48,0.37
	c0.44,0,0.82,0,1.18-0.15c0.37-0.07,0.59-0.15,0.74-0.37c0.15-0.15,0.22-0.89,0.22-2.15v-8.59h4.44v7.85c0,1.63-0.15,2.89-0.52,3.78
	C111.38,187.19,110.71,187.86,109.75,188.23z M125.45,182.75c-0.37-0.3-0.89-0.52-1.48-0.52v-0.15c1.04-0.15,1.78-0.44,2.22-1.04
	c0.52-0.59,0.74-1.33,0.74-2.37c0-1.04-0.3-1.92-0.74-2.52c-0.52-0.59-1.26-1.04-2.22-1.33c-0.96-0.22-2.22-0.37-3.78-0.37
	c-1.7,0-3.55,0.07-5.55,0.22v13.92h4.44v-5.18c0.89,0,1.56,0,2-0.07c0.15,0.07,0.3,0.22,0.44,0.37c0.07,0.15,0.15,0.37,0.22,0.67
	c0.07,0.37,0.15,0.59,0.15,0.67l0.89,3.55h4.67l-1.26-4.59C126.12,183.49,125.82,183.12,125.45,182.75z M122.12,180.31
	c-0.22,0.22-0.96,0.3-2.22,0.3h-0.82v-3.41h1.11c0.82,0,1.33,0.07,1.7,0.37c0.37,0.22,0.52,0.67,0.52,1.33
	C122.41,179.64,122.34,180.08,122.12,180.31z M128.78,174.6h10.29v2.89h-5.85v2.59h4.89v2.67h-4.89v2.89H139v2.96h-10.22V174.6z
	 M144.26,174.6l-4.59,14h4.59l0.74-3.04h4.07l0.74,3.04h4.52l-4.29-14H144.26z M145.52,182.82l1.48-5.26h0.07l1.41,5.26H145.52z
	 M152.33,174.6h12.37v3.04h-3.92v10.96h-4.44v-10.96h-4V174.6z M166.03,174.6h10.22v2.89h-5.78v2.59h4.89v2.67h-4.89v2.89h5.78v2.96
	h-10.22V174.6z M188.84,184.3c0,3.04-2,4.59-6,4.59c-0.67,0-1.48-0.07-2.37-0.15c-0.96-0.15-1.85-0.3-2.59-0.44
	c0-0.37,0.07-0.89,0.22-1.55c0.07-0.67,0.15-1.11,0.3-1.48c0.59,0.08,1.41,0.22,2.59,0.3c1.18,0.15,2,0.15,2.59,0.15
	c0.37,0,0.59,0,0.67-0.07c0.07,0,0.15-0.15,0.22-0.3c0.07-0.15,0.07-0.3,0.07-0.45c0-0.3-0.15-0.52-0.44-0.74
	c-0.37-0.15-0.89-0.37-1.63-0.59c-0.89-0.3-1.63-0.59-2.22-0.89c-0.59-0.3-1.11-0.74-1.55-1.41c-0.44-0.59-0.67-1.41-0.67-2.44
	c0-0.74,0.15-1.41,0.45-2.15c0.37-0.67,0.67-1.18,1.04-1.41c0.3-0.15,0.81-0.37,1.63-0.52c0.81-0.15,1.63-0.22,2.3-0.22
	c1.85,0,3.41,0.15,4.52,0.52c0,0.3-0.07,0.74-0.15,1.33c-0.07,0.59-0.15,1.11-0.3,1.55h-0.52c-2.15-0.15-3.55-0.22-4.15-0.22h-0.37
	c-0.07,0.07-0.15,0.15-0.22,0.22c0,0.15-0.07,0.3-0.07,0.44c0,0.3,0.22,0.59,0.59,0.81c0.3,0.15,0.89,0.37,1.63,0.59
	c0.89,0.3,1.63,0.59,2.22,0.89c0.59,0.3,1.11,0.74,1.55,1.33C188.62,182.6,188.84,183.34,188.84,184.3z"/>
</svg>
